<mxfile host="Electron" agent="Mozilla/5.0 (Windows NT 10.0; Win64; x64) AppleWebKit/537.36 (KHTML, like Gecko) draw.io/26.0.9 Chrome/128.0.6613.186 Electron/32.2.5 Safari/537.36" version="26.0.9">
  <diagram name="Page-1" id="T7TAUxB0bAoFN2-3Zoso">
    <mxGraphModel dx="1050" dy="621" grid="1" gridSize="10" guides="1" tooltips="1" connect="1" arrows="1" fold="1" page="1" pageScale="1" pageWidth="850" pageHeight="1100" math="0" shadow="0">
      <root>
        <mxCell id="0" />
        <mxCell id="1" parent="0" />
        <mxCell id="Qz28lRwkaUpcQZ90G7u1-18" value="&lt;b&gt;&lt;font face=&quot;Times New Roman&quot;&gt;crm_cust_infro&lt;/font&gt;&lt;/b&gt;" style="swimlane;fontStyle=0;childLayout=stackLayout;horizontal=1;startSize=30;horizontalStack=0;resizeParent=1;resizeParentMax=0;resizeLast=0;collapsible=1;marginBottom=0;whiteSpace=wrap;html=1;rounded=1;shadow=1;" vertex="1" parent="1">
          <mxGeometry x="285" y="520" width="140" height="90" as="geometry" />
        </mxCell>
        <mxCell id="Qz28lRwkaUpcQZ90G7u1-19" value="&lt;i&gt;cst_id&lt;/i&gt;&lt;div&gt;&lt;i&gt;&lt;br&gt;&lt;/i&gt;&lt;div&gt;&lt;i&gt;cst_key&lt;/i&gt;&lt;/div&gt;&lt;/div&gt;" style="text;strokeColor=none;fillColor=none;align=left;verticalAlign=middle;spacingLeft=4;spacingRight=4;overflow=hidden;points=[[0,0.5],[1,0.5]];portConstraint=eastwest;rotatable=0;whiteSpace=wrap;html=1;" vertex="1" parent="Qz28lRwkaUpcQZ90G7u1-18">
          <mxGeometry y="30" width="140" height="60" as="geometry" />
        </mxCell>
        <mxCell id="Qz28lRwkaUpcQZ90G7u1-23" value="&lt;font face=&quot;Times New Roman&quot;&gt;&lt;b&gt;crm_prod_info&lt;/b&gt;&lt;/font&gt;" style="swimlane;fontStyle=0;childLayout=stackLayout;horizontal=1;startSize=30;horizontalStack=0;resizeParent=1;resizeParentMax=0;resizeLast=0;collapsible=1;marginBottom=0;whiteSpace=wrap;html=1;rounded=1;" vertex="1" parent="1">
          <mxGeometry x="285" y="240" width="140" height="80" as="geometry" />
        </mxCell>
        <mxCell id="Qz28lRwkaUpcQZ90G7u1-24" value="&lt;i&gt;prd_id&lt;/i&gt;" style="text;strokeColor=none;fillColor=none;align=left;verticalAlign=middle;spacingLeft=4;spacingRight=4;overflow=hidden;points=[[0,0.5],[1,0.5]];portConstraint=eastwest;rotatable=0;whiteSpace=wrap;html=1;rounded=1;" vertex="1" parent="Qz28lRwkaUpcQZ90G7u1-23">
          <mxGeometry y="30" width="140" height="30" as="geometry" />
        </mxCell>
        <mxCell id="Qz28lRwkaUpcQZ90G7u1-25" value="&lt;i&gt;prd_key&lt;/i&gt;" style="text;strokeColor=none;fillColor=none;align=left;verticalAlign=middle;spacingLeft=4;spacingRight=4;overflow=hidden;points=[[0,0.5],[1,0.5]];portConstraint=eastwest;rotatable=0;whiteSpace=wrap;html=1;rounded=1;" vertex="1" parent="Qz28lRwkaUpcQZ90G7u1-23">
          <mxGeometry y="60" width="140" height="20" as="geometry" />
        </mxCell>
        <mxCell id="Qz28lRwkaUpcQZ90G7u1-27" value="&lt;font face=&quot;Times New Roman&quot;&gt;&lt;b&gt;crm_sales_details&lt;/b&gt;&lt;/font&gt;" style="swimlane;fontStyle=0;childLayout=stackLayout;horizontal=1;startSize=30;horizontalStack=0;resizeParent=1;resizeParentMax=0;resizeLast=0;collapsible=1;marginBottom=0;whiteSpace=wrap;html=1;rounded=1;" vertex="1" parent="1">
          <mxGeometry x="60" y="360" width="140" height="80" as="geometry" />
        </mxCell>
        <mxCell id="Qz28lRwkaUpcQZ90G7u1-28" value="&lt;i&gt;sls_prd_key&lt;/i&gt;" style="text;strokeColor=none;fillColor=none;align=left;verticalAlign=middle;spacingLeft=4;spacingRight=4;overflow=hidden;points=[[0,0.5],[1,0.5]];portConstraint=eastwest;rotatable=0;whiteSpace=wrap;html=1;rounded=1;" vertex="1" parent="Qz28lRwkaUpcQZ90G7u1-27">
          <mxGeometry y="30" width="140" height="30" as="geometry" />
        </mxCell>
        <mxCell id="Qz28lRwkaUpcQZ90G7u1-29" value="&lt;i&gt;sls_cust_id&lt;/i&gt;" style="text;strokeColor=none;fillColor=none;align=left;verticalAlign=middle;spacingLeft=4;spacingRight=4;overflow=hidden;points=[[0,0.5],[1,0.5]];portConstraint=eastwest;rotatable=0;whiteSpace=wrap;html=1;rounded=1;" vertex="1" parent="Qz28lRwkaUpcQZ90G7u1-27">
          <mxGeometry y="60" width="140" height="20" as="geometry" />
        </mxCell>
        <mxCell id="Qz28lRwkaUpcQZ90G7u1-30" style="edgeStyle=orthogonalEdgeStyle;rounded=0;orthogonalLoop=1;jettySize=auto;html=1;entryX=0;entryY=0.5;entryDx=0;entryDy=0;" edge="1" parent="1" source="Qz28lRwkaUpcQZ90G7u1-29" target="Qz28lRwkaUpcQZ90G7u1-19">
          <mxGeometry relative="1" as="geometry" />
        </mxCell>
        <mxCell id="Qz28lRwkaUpcQZ90G7u1-31" style="edgeStyle=orthogonalEdgeStyle;rounded=0;orthogonalLoop=1;jettySize=auto;html=1;entryX=0;entryY=0.5;entryDx=0;entryDy=0;" edge="1" parent="1" source="Qz28lRwkaUpcQZ90G7u1-28" target="Qz28lRwkaUpcQZ90G7u1-24">
          <mxGeometry relative="1" as="geometry" />
        </mxCell>
        <mxCell id="Qz28lRwkaUpcQZ90G7u1-32" value="&lt;b&gt;&lt;font face=&quot;Times New Roman&quot;&gt;erp_cust_az12&lt;/font&gt;&lt;/b&gt;" style="swimlane;fontStyle=0;childLayout=stackLayout;horizontal=1;startSize=30;horizontalStack=0;resizeParent=1;resizeParentMax=0;resizeLast=0;collapsible=1;marginBottom=0;whiteSpace=wrap;html=1;rounded=1;shadow=1;fillColor=#ffe6cc;strokeColor=#d79b00;" vertex="1" parent="1">
          <mxGeometry x="700" y="610" width="140" height="70" as="geometry" />
        </mxCell>
        <mxCell id="Qz28lRwkaUpcQZ90G7u1-33" value="&lt;i&gt;cid&lt;/i&gt;" style="text;strokeColor=none;fillColor=none;align=left;verticalAlign=middle;spacingLeft=4;spacingRight=4;overflow=hidden;points=[[0,0.5],[1,0.5]];portConstraint=eastwest;rotatable=0;whiteSpace=wrap;html=1;" vertex="1" parent="Qz28lRwkaUpcQZ90G7u1-32">
          <mxGeometry y="30" width="140" height="40" as="geometry" />
        </mxCell>
        <mxCell id="Qz28lRwkaUpcQZ90G7u1-35" style="edgeStyle=orthogonalEdgeStyle;rounded=0;orthogonalLoop=1;jettySize=auto;html=1;entryX=0.007;entryY=0.3;entryDx=0;entryDy=0;entryPerimeter=0;" edge="1" parent="1" source="Qz28lRwkaUpcQZ90G7u1-19" target="Qz28lRwkaUpcQZ90G7u1-39">
          <mxGeometry relative="1" as="geometry" />
        </mxCell>
        <mxCell id="Qz28lRwkaUpcQZ90G7u1-38" value="&lt;b&gt;&lt;font face=&quot;Times New Roman&quot;&gt;erp_loc_a101&lt;/font&gt;&lt;/b&gt;" style="swimlane;fontStyle=0;childLayout=stackLayout;horizontal=1;startSize=30;horizontalStack=0;resizeParent=1;resizeParentMax=0;resizeLast=0;collapsible=1;marginBottom=0;whiteSpace=wrap;html=1;rounded=1;shadow=1;fillColor=#ffe6cc;strokeColor=#d79b00;" vertex="1" parent="1">
          <mxGeometry x="700" y="460" width="140" height="70" as="geometry" />
        </mxCell>
        <mxCell id="Qz28lRwkaUpcQZ90G7u1-39" value="&lt;i&gt;cid&lt;/i&gt;" style="text;strokeColor=none;fillColor=none;align=left;verticalAlign=middle;spacingLeft=4;spacingRight=4;overflow=hidden;points=[[0,0.5],[1,0.5]];portConstraint=eastwest;rotatable=0;whiteSpace=wrap;html=1;" vertex="1" parent="Qz28lRwkaUpcQZ90G7u1-38">
          <mxGeometry y="30" width="140" height="40" as="geometry" />
        </mxCell>
        <mxCell id="Qz28lRwkaUpcQZ90G7u1-40" style="edgeStyle=orthogonalEdgeStyle;rounded=0;orthogonalLoop=1;jettySize=auto;html=1;entryX=-0.014;entryY=0.775;entryDx=0;entryDy=0;entryPerimeter=0;" edge="1" parent="1" source="Qz28lRwkaUpcQZ90G7u1-19" target="Qz28lRwkaUpcQZ90G7u1-33">
          <mxGeometry relative="1" as="geometry" />
        </mxCell>
        <mxCell id="Qz28lRwkaUpcQZ90G7u1-41" value="&lt;b&gt;&lt;font face=&quot;Times New Roman&quot;&gt;erp_px_cat_g1v2&lt;/font&gt;&lt;/b&gt;" style="swimlane;fontStyle=0;childLayout=stackLayout;horizontal=1;startSize=30;horizontalStack=0;resizeParent=1;resizeParentMax=0;resizeLast=0;collapsible=1;marginBottom=0;whiteSpace=wrap;html=1;rounded=1;shadow=1;fillColor=#ffe6cc;strokeColor=#d79b00;gradientColor=none;swimlaneFillColor=default;" vertex="1" parent="1">
          <mxGeometry x="710" y="250" width="140" height="70" as="geometry" />
        </mxCell>
        <mxCell id="Qz28lRwkaUpcQZ90G7u1-42" value="&lt;i&gt;id&lt;/i&gt;" style="text;strokeColor=none;fillColor=none;align=left;verticalAlign=middle;spacingLeft=4;spacingRight=4;overflow=hidden;points=[[0,0.5],[1,0.5]];portConstraint=eastwest;rotatable=0;whiteSpace=wrap;html=1;" vertex="1" parent="Qz28lRwkaUpcQZ90G7u1-41">
          <mxGeometry y="30" width="140" height="40" as="geometry" />
        </mxCell>
        <mxCell id="Qz28lRwkaUpcQZ90G7u1-43" style="edgeStyle=orthogonalEdgeStyle;rounded=0;orthogonalLoop=1;jettySize=auto;html=1;exitX=1;exitY=0.5;exitDx=0;exitDy=0;entryX=0;entryY=0.5;entryDx=0;entryDy=0;" edge="1" parent="1" source="Qz28lRwkaUpcQZ90G7u1-24" target="Qz28lRwkaUpcQZ90G7u1-42">
          <mxGeometry relative="1" as="geometry" />
        </mxCell>
        <mxCell id="Qz28lRwkaUpcQZ90G7u1-44" value="&lt;font face=&quot;Times New Roman&quot;&gt;&lt;b&gt;&lt;u&gt;Transactional Report about sales and orders&lt;/u&gt;&lt;/b&gt;&lt;/font&gt;" style="text;html=1;align=center;verticalAlign=middle;whiteSpace=wrap;rounded=0;" vertex="1" parent="1">
          <mxGeometry x="50" y="320" width="160" height="30" as="geometry" />
        </mxCell>
        <mxCell id="Qz28lRwkaUpcQZ90G7u1-45" value="&lt;font face=&quot;Times New Roman&quot;&gt;&lt;b&gt;&lt;u&gt;current &amp;amp; history&amp;nbsp;&lt;/u&gt;&lt;/b&gt;&lt;/font&gt;&lt;div&gt;&lt;font face=&quot;Times New Roman&quot;&gt;&lt;b&gt;&lt;u&gt;product information&lt;/u&gt;&lt;/b&gt;&lt;/font&gt;&lt;/div&gt;" style="text;html=1;align=center;verticalAlign=middle;whiteSpace=wrap;rounded=0;" vertex="1" parent="1">
          <mxGeometry x="285" y="200" width="160" height="30" as="geometry" />
        </mxCell>
        <mxCell id="Qz28lRwkaUpcQZ90G7u1-46" value="&lt;font face=&quot;Times New Roman&quot;&gt;&lt;b&gt;&lt;u&gt;customer information&lt;/u&gt;&lt;/b&gt;&lt;/font&gt;" style="text;html=1;align=center;verticalAlign=middle;whiteSpace=wrap;rounded=0;" vertex="1" parent="1">
          <mxGeometry x="275" y="480" width="175" height="30" as="geometry" />
        </mxCell>
        <mxCell id="Qz28lRwkaUpcQZ90G7u1-47" value="&lt;font face=&quot;Times New Roman&quot;&gt;&lt;b&gt;&lt;u&gt;Location of customer (Country)&lt;/u&gt;&lt;/b&gt;&lt;/font&gt;" style="text;html=1;align=center;verticalAlign=middle;whiteSpace=wrap;rounded=0;" vertex="1" parent="1">
          <mxGeometry x="691.25" y="430" width="157.5" height="30" as="geometry" />
        </mxCell>
        <mxCell id="Qz28lRwkaUpcQZ90G7u1-48" value="&lt;font face=&quot;Times New Roman&quot;&gt;&lt;b&gt;&lt;u&gt;extra customer information (Birthdate)&lt;/u&gt;&lt;/b&gt;&lt;/font&gt;" style="text;html=1;align=center;verticalAlign=middle;whiteSpace=wrap;rounded=0;" vertex="1" parent="1">
          <mxGeometry x="602.5" y="570" width="175" height="30" as="geometry" />
        </mxCell>
        <mxCell id="Qz28lRwkaUpcQZ90G7u1-49" value="&lt;font face=&quot;Times New Roman&quot;&gt;&lt;b&gt;&lt;u&gt;extra customer information (Birthdate)&lt;/u&gt;&lt;/b&gt;&lt;/font&gt;" style="text;html=1;align=center;verticalAlign=middle;whiteSpace=wrap;rounded=0;" vertex="1" parent="1">
          <mxGeometry x="700" y="210" width="175" height="30" as="geometry" />
        </mxCell>
        <mxCell id="Qz28lRwkaUpcQZ90G7u1-51" value="" style="rounded=1;whiteSpace=wrap;html=1;fillColor=none;dashed=1;" vertex="1" parent="1">
          <mxGeometry x="40" y="170" width="440" height="520" as="geometry" />
        </mxCell>
        <mxCell id="Qz28lRwkaUpcQZ90G7u1-52" value="&lt;font style=&quot;font-size: 16px;&quot; face=&quot;Times New Roman&quot;&gt;&lt;b style=&quot;&quot;&gt;&lt;u&gt;CRM&lt;/u&gt;&lt;/b&gt;&lt;/font&gt;" style="rounded=1;whiteSpace=wrap;html=1;dashed=1;dashPattern=1 1;fillColor=#dae8fc;strokeColor=#6c8ebf;glass=1;sketch=1;curveFitting=1;jiggle=2;" vertex="1" parent="1">
          <mxGeometry x="210" y="140" width="120" height="40" as="geometry" />
        </mxCell>
        <mxCell id="Qz28lRwkaUpcQZ90G7u1-53" value="" style="rounded=1;whiteSpace=wrap;html=1;fillColor=none;dashed=1;glass=0;shadow=0;" vertex="1" parent="1">
          <mxGeometry x="510" y="170" width="440" height="520" as="geometry" />
        </mxCell>
        <mxCell id="Qz28lRwkaUpcQZ90G7u1-54" value="&lt;font style=&quot;font-size: 16px;&quot; face=&quot;Times New Roman&quot;&gt;&lt;b style=&quot;&quot;&gt;&lt;u&gt;ERP&lt;/u&gt;&lt;/b&gt;&lt;/font&gt;" style="rounded=0;whiteSpace=wrap;html=1;dashed=1;dashPattern=1 1;fillColor=#ffe6cc;strokeColor=#d79b00;glass=1;sketch=1;curveFitting=1;jiggle=2;" vertex="1" parent="1">
          <mxGeometry x="680" y="140" width="120" height="40" as="geometry" />
        </mxCell>
      </root>
    </mxGraphModel>
  </diagram>
</mxfile>
